<svg width="40" height="40" viewBox="0 0 40 40" fill="none" xmlns="http://www.w3.org/2000/svg">
<rect x="0.5" y="0.5" width="39" height="39" rx="19.5" stroke="white" stroke-opacity="0.2"/>
<path d="M19.9867 25.462C20.04 25.4409 20.1172 25.4013 20.1598 25.3696C20.2024 25.3405 21.1372 24.4156 22.2399 23.3186C23.7847 21.7816 24.2562 21.2966 24.2962 21.2036C24.4749 20.8106 24.2015 20.376 23.7759 20.377C23.5178 20.3787 23.5098 20.384 21.8984 21.9872L20.3856 23.4897L20.3835 14.525L20.3092 14.3997C20.203 14.2157 20.0382 14.1247 19.8121 14.1238C19.6232 14.1257 19.5248 14.1626 19.4022 14.2845C19.2264 14.4621 19.2403 14.0551 19.2261 19.0029L19.2151 23.4852L17.706 21.9711C16.0987 20.3556 16.0907 20.3503 15.8327 20.3466C15.407 20.3423 15.1325 20.7749 15.3102 21.1693C15.35 21.2625 15.8229 21.7538 17.3745 23.3133C18.4797 24.4268 19.4362 25.3695 19.4973 25.4043C19.6329 25.4873 19.851 25.512 19.9867 25.462Z" fill="#8BC542"/>
</svg>
