<svg width="60" height="34" viewBox="0 0 60 34" fill="none" xmlns="http://www.w3.org/2000/svg">
<path d="M18.3681 0.54356C17.9132 0.748306 17.4582 1.2488 17.242 1.77204C17.0828 2.12466 17.06 2.85265 17.06 6.35611V10.5079H14.4552H11.8617L11.8049 9.38181C11.7594 8.4377 11.6911 8.15333 11.3954 7.51634C10.7356 6.09448 9.62089 5.33237 9.1659 5.98074C8.8929 6.37885 8.9384 6.5836 9.47302 7.12959C10.201 7.86896 10.3944 8.3467 10.4399 9.50694L10.4854 10.5079H8.90428C8.03979 10.5079 6.98193 10.5648 6.54969 10.6217C5.07096 10.8378 3.72872 11.8388 3.09173 13.2151C2.79599 13.8294 2.78461 13.9545 2.75049 16.0475L2.70499 18.2201L2.43199 18.2883C2.04525 18.3907 1.38551 19.0049 1.12389 19.5054C0.80539 20.131 0.816765 22.5084 1.13526 23.2136C1.45376 23.9302 3.47848 26.7171 3.99035 27.1607C4.59321 27.6726 5.38945 27.9114 6.58381 27.9228H7.56205L8.06254 28.9693C8.90428 30.7096 10.4854 32.0974 12.4191 32.7685C13.5225 33.1552 15.4903 33.2576 16.6619 32.9846C17.8335 32.7116 19.1985 31.995 20.0857 31.176C20.9161 30.4139 21.8716 29.0717 22.0877 28.3551L22.2128 27.9114H26.6035H30.9942L31.4265 28.7987C33.5877 33.3145 39.4912 34.5771 43.37 31.3466C44.1663 30.6869 44.9512 29.6745 45.3493 28.81L45.6564 28.1389H47.0441H48.4319L48.466 29.083C48.5001 29.8679 48.5684 30.1523 48.8755 30.7665C49.3191 31.6651 50.0357 32.359 50.9343 32.7799L51.5827 33.087L55.1999 33.1211C57.8389 33.1439 58.874 33.1211 58.9877 33.0187C59.1925 32.8595 59.1925 32.1884 58.9991 32.0291C58.9195 31.9609 58.6123 31.8926 58.3052 31.8699L57.7592 31.8358L55.6094 24.954C53.1638 17.1395 53.3117 17.4466 52.1628 17.4466C51.6964 17.4466 51.3666 17.5376 50.7523 17.8561C49.2736 18.5841 48.557 19.7443 48.4774 21.5188L48.4319 22.5653H47.0214H45.6223L45.2014 21.769C44.3597 20.1652 42.6534 18.7092 40.9131 18.1063C40.151 17.8447 40.1396 17.8333 39.9462 17.276C39.5367 16.0816 39.0931 15.365 38.5244 14.9782C37.7964 14.4891 37.3414 14.3754 36.1015 14.3754H35.0664L34.691 13.6019C33.9858 12.18 32.6891 11.1677 31.0283 10.7468L30.198 10.5307L28.7648 6.04898C27.9799 3.56927 27.2291 1.41942 27.1154 1.26018C27.0016 1.1123 26.7287 0.862057 26.5125 0.714184C26.1258 0.441185 26.103 0.441185 22.4176 0.418438C19.4943 0.395687 18.6411 0.418438 18.3681 0.54356ZM19.9037 6.07174V10.5079H19.1644H18.425V6.37885V2.23841L18.6866 2.01092C18.9824 1.72654 19.1758 1.65829 19.5966 1.64692L19.9037 1.63555V6.07174ZM25.7049 1.80617C25.9893 1.95404 26.0917 2.17016 26.5353 3.53514C27.8093 7.39122 28.8899 10.8378 28.8899 11.0084C28.8899 11.27 28.0254 12.4644 27.7183 12.635C27.5476 12.726 26.8652 12.7715 25.6594 12.7829H23.8622L23.4982 12.3961C23.3048 12.1914 22.9295 11.7478 22.6565 11.4293C22.3152 11.0312 22.0195 10.815 21.7124 10.724L21.2687 10.5875V6.10586V1.63555H23.3162C24.9087 1.63555 25.4433 1.66967 25.7049 1.80617ZM21.6555 12.3961C23.2821 14.2161 23.1911 14.182 25.9779 14.1251C28.3439 14.0796 28.56 14 29.4814 12.7146C30.0046 11.9753 30.107 11.8843 30.3572 11.9412C31.9725 12.2938 33.1099 13.2265 33.7128 14.6939C33.8721 15.092 33.9403 15.6039 33.9858 16.6731L34.0313 18.1291H25.7618C18.2316 18.1291 17.4354 18.1063 16.8553 17.9357C15.9794 17.6627 13.841 17.6627 12.9423 17.9357C12.3964 18.1063 11.748 18.1291 8.19904 18.1291H4.09272V16.2181C4.09272 14.4664 4.11547 14.273 4.36572 13.7498C4.69559 13.0331 5.5487 12.2596 6.24256 12.0549C6.67481 11.9184 8.09666 11.8843 13.9775 11.8843L21.1891 11.8729L21.6555 12.3961ZM37.5348 15.9451C37.8305 16.093 38.0239 16.3432 38.2969 16.8892L38.6609 17.6172L37.7395 17.7082C37.239 17.7651 36.511 17.9016 36.1357 18.0153C35.7489 18.1404 35.4304 18.2201 35.419 18.2087C35.4077 18.1973 35.3735 17.64 35.3508 16.9575L35.3167 15.7404H36.2266C36.8864 15.7404 37.2504 15.7972 37.5348 15.9451ZM54.3013 25.2952C55.4046 28.8328 56.3032 31.7675 56.3032 31.813C56.3032 31.8699 55.3478 31.8926 54.1762 31.8699C51.7988 31.8244 51.5486 31.7561 50.7523 31.0395C50.4907 30.812 50.1722 30.3912 50.0243 30.0954C49.7627 29.5608 49.7627 29.5267 49.7627 25.2838V21.0183L50.104 20.3472C50.2973 19.9832 50.6272 19.5395 50.8547 19.3576C51.2983 18.9936 52.1059 18.6637 52.2197 18.7888C52.2652 18.8343 53.1979 21.7576 54.3013 25.2952ZM16.4344 19.2097C18.7663 19.8239 20.6204 21.7235 21.1664 24.044C21.6555 26.1825 20.9161 28.5257 19.244 30.084C16.6278 32.541 12.6466 32.3817 10.2124 29.7314C6.95918 26.1938 8.65403 20.4723 13.3405 19.2097C14.1367 18.9936 15.6041 19.0049 16.4344 19.2097ZM39.7187 19.1642C40.8676 19.4031 41.9482 20.0173 42.8809 20.9614C43.3587 21.4391 43.8819 22.0875 44.0525 22.4174C44.4507 23.1681 44.8147 24.59 44.8147 25.409C44.8147 26.1938 44.4734 27.5816 44.0867 28.3323C43.37 29.7428 41.9482 30.9599 40.3785 31.5059C39.1727 31.9268 37.603 31.9268 36.3973 31.5059C34.2816 30.7779 32.7459 29.1058 32.1886 26.9446C31.9156 25.8867 31.9042 25.1815 32.1317 24.1009C32.6208 21.8031 34.6 19.7557 36.8864 19.1983C37.6371 19.0163 38.9339 19.0049 39.7187 19.1642ZM9.63227 19.7215C9.1659 20.0855 8.30141 21.3027 7.89192 22.1671C7.39142 23.2022 7.1298 24.5104 7.18668 25.6478L7.2208 26.5465H6.44731C5.1392 26.5465 4.94583 26.41 3.4671 24.3284C2.24999 22.6221 2.12487 22.315 2.18175 21.1207C2.21587 20.1993 2.22725 20.1424 2.59124 19.8239L2.95524 19.4941H6.44731H9.92801L9.63227 19.7215ZM32.6436 20.2562C31.3696 21.6553 30.6757 23.4752 30.6757 25.4317V26.5465H26.6718H22.6565L22.611 25.2042C22.5313 23.1567 21.9171 21.6325 20.5862 20.1424L19.9947 19.4941H26.6718H33.3488L32.6436 20.2562ZM48.4546 25.3521V26.8877H47.2716H46.1V25.6023C46.1114 24.9085 46.0659 24.2146 46.0204 24.0667C45.9408 23.8165 45.9408 23.8165 47.192 23.8165H48.4546V25.3521Z" fill="#EFF1F1"/>
<path d="M13.8884 21.7236C13.1035 21.9283 12.6599 22.2127 12.0684 22.8497C11.3404 23.6346 11.1129 24.2602 11.1016 25.409C11.1016 26.1711 11.1471 26.4896 11.3518 26.9333C11.7386 27.7864 12.3073 28.4006 13.1035 28.8329C13.7747 29.1969 13.8884 29.2196 14.9008 29.2196C15.788 29.2196 16.0724 29.1741 16.5046 28.958C17.3009 28.5712 17.8923 28.0025 18.3132 27.2063C18.6772 26.5465 18.7113 26.41 18.7113 25.4659C18.7113 24.59 18.6658 24.3512 18.4156 23.8166C17.881 22.7132 17.0392 22.0193 15.8676 21.7122C15.0486 21.5075 14.696 21.5075 13.8884 21.7236ZM16.0496 23.2251C16.5274 23.4639 16.7549 23.6801 17.0392 24.1578C17.3805 24.7265 17.4146 24.8517 17.3805 25.5342C17.3464 26.1256 17.2667 26.3873 17.0279 26.7626C16.5729 27.4451 15.9245 27.8319 15.1283 27.8887C14.2638 27.957 13.7178 27.7636 13.149 27.1835C11.8864 25.9323 12.2845 23.8734 13.9339 23.1227C14.605 22.8156 15.333 22.8497 16.0496 23.2251Z" fill="#8BC542"/>
<path d="M37.408 21.6896C36.1909 22.0423 35.224 22.9068 34.7918 24.0329C34.4506 24.9315 34.5188 26.3533 34.9397 27.1723C35.3037 27.8662 36.1113 28.6397 36.8279 28.9695C37.59 29.3222 39.1825 29.3222 39.9446 28.9695C40.6612 28.6397 41.4688 27.8662 41.8328 27.1723C42.2537 26.3533 42.3219 24.9315 41.9807 24.0329C41.3096 22.2698 39.2052 21.1891 37.408 21.6896ZM39.137 23.0319C40.8546 23.612 41.4688 25.7163 40.2859 27.0244C39.7285 27.6501 39.1597 27.9117 38.3863 27.9117C37.2374 27.9117 36.2023 27.0927 35.9407 25.978C35.497 24.1352 37.3511 22.4404 39.137 23.0319Z" fill="#8BC542"/>
</svg>
