<svg width="36" height="45" viewBox="0 0 36 45" fill="none" xmlns="http://www.w3.org/2000/svg">
<path d="M2.08752 0.545444C1.42336 0.749123 0.79462 1.29816 0.422691 2.01545L0.183594 2.45822V21.0104V39.5626L0.369558 39.9699C0.803475 40.8997 1.68902 41.5285 2.69854 41.617L3.22101 41.6702L3.50439 42.7859C3.65493 43.397 3.84975 43.9726 3.92059 44.0523C4.04457 44.194 4.2571 44.2117 5.8865 44.2117C6.88717 44.2117 7.755 44.1762 7.80814 44.1408C7.97639 44.0346 8.08265 43.7512 8.33946 42.6797L8.58742 41.6436H17.8502H27.113L27.361 42.6797C27.6178 43.7512 27.724 44.0346 27.8923 44.1408C27.9454 44.1762 28.8133 44.2117 29.8139 44.2117C31.4433 44.2117 31.6559 44.194 31.7798 44.0523C31.8507 43.9726 32.0455 43.397 32.196 42.7859L32.4794 41.6702L33.0019 41.617C34.0114 41.5285 34.897 40.8997 35.3309 39.9699L35.5168 39.5626V21.0547V2.54678L35.2866 2.05973C34.9855 1.42213 34.4011 0.864243 33.8166 0.642857C33.3473 0.465748 33.1259 0.465748 17.8237 0.474602C9.287 0.474602 2.21149 0.510025 2.08752 0.545444ZM33.5155 1.99774C34.2062 2.45822 34.2328 2.55563 34.2328 5.92956V8.87843H30.4692H26.7145L25.9795 8.40023C21.1267 5.24769 14.5737 5.24769 9.72091 8.40023L8.98591 8.87843H5.2312H1.46763V5.92956C1.46763 3.25521 1.48534 2.95413 1.63589 2.62648C1.83071 2.21027 2.24691 1.87376 2.69854 1.78521C2.87565 1.74979 9.79176 1.73207 18.0805 1.74093L33.1347 1.74979L33.5155 1.99774ZM20.5777 7.62981C22.3222 8.00174 23.8454 8.63933 25.3773 9.61343L26.2895 10.2067H30.2656H34.2328V23.3128V36.4189H17.8502H1.46763V23.3128V10.2067H5.43488H9.40212L10.2434 9.66656C12.041 8.5065 13.7679 7.83348 15.8046 7.50583C16.9027 7.31987 19.4885 7.39071 20.5777 7.62981ZM24.6689 39.0312V40.3153H13.697C6.15217 40.3153 2.63655 40.2887 2.4683 40.2179C2.13179 40.0939 1.7333 39.7131 1.59161 39.3677C1.52077 39.2083 1.46763 38.7833 1.46763 38.4114V37.7472H13.0683H24.6689V39.0312ZM34.2328 38.4114C34.2328 38.7833 34.1797 39.2083 34.1088 39.3677C33.9671 39.7131 33.5686 40.0939 33.2321 40.2179C33.0727 40.2799 31.7444 40.3153 29.4863 40.3153H25.9972V39.0312V37.7472H30.115H34.2328V38.4114ZM7.04657 42.2812L6.89602 42.9276L5.91307 42.9542L4.93011 42.9808L4.84156 42.6443C4.79728 42.4583 4.72644 42.1572 4.69102 41.9712L4.63789 41.6436H5.91307H7.19711L7.04657 42.2812ZM31.0094 41.9712C30.974 42.1572 30.9032 42.4583 30.8589 42.6443L30.7703 42.9808L29.7874 42.9542L28.8044 42.9276L28.6539 42.2812L28.5033 41.6436H29.7874H31.0625L31.0094 41.9712Z" fill="white"/>
<path d="M2.67165 3.04276L2.44141 3.21987V5.29205V7.36422L2.67165 7.54133C2.90189 7.71844 3.00815 7.72729 5.80648 7.72729C8.53395 7.72729 8.71992 7.71844 8.91474 7.55904C9.12727 7.39079 9.12727 7.36422 9.15384 5.4603C9.1804 3.37927 9.13613 3.08704 8.75534 2.9365C8.64022 2.89222 7.27648 2.8568 5.72678 2.8568C3.00815 2.8568 2.90189 2.86565 2.67165 3.04276ZM7.84323 5.29205V6.39898H5.80648H3.76972V5.29205V4.18512H5.80648H7.84323V5.29205Z" fill="#8BC542"/>
<path d="M26.8958 2.94535C26.5593 3.08704 26.515 3.39698 26.5416 5.45145C26.5681 7.36422 26.5681 7.39079 26.7807 7.55904C26.9755 7.71844 27.1615 7.72729 29.8889 7.72729C32.6873 7.72729 32.7935 7.71844 33.0238 7.54133L33.254 7.36422V5.29205V3.21987L33.0238 3.04276C32.7935 2.86565 32.6873 2.8568 29.9421 2.86565C28.3835 2.86565 27.0109 2.90108 26.8958 2.94535ZM31.9257 5.29205V6.39898H29.8889H27.8522V5.29205V4.18512H29.8889H31.9257V5.29205Z" fill="#8BC542"/>
<path d="M13.5902 3.39751C13.3688 3.47721 13.1562 3.79601 13.1562 4.04396C13.1562 4.10595 13.2359 4.26534 13.3422 4.39818L13.5193 4.62842H17.8496H22.18L22.3571 4.39818C22.4633 4.26534 22.543 4.10595 22.543 4.04396C22.543 3.78715 22.3216 3.47721 22.0737 3.38866C21.7283 3.27353 13.9178 3.28239 13.5902 3.39751Z" fill="#8BC542"/>
<path d="M15.9027 9.00215C12.1214 9.68402 9.06626 11.8005 7.19776 15.0327C5.46209 18.017 5.10787 21.878 6.26794 25.1545C7.72023 29.3165 11.2358 32.3363 15.6104 33.2041C16.6908 33.4166 19.0198 33.4078 20.1001 33.1952C23.908 32.4425 27.0428 30.1047 28.7608 26.7219C29.8323 24.5966 30.2662 22.4182 30.0714 20.1246C29.7969 17.034 28.5571 14.4305 26.3344 12.2787C24.6696 10.6758 22.6771 9.61317 20.3304 9.09956C19.4271 8.89588 16.8059 8.84275 15.9027 9.00215ZM19.6485 10.3393C22.624 10.8618 25.2629 12.5709 26.9277 15.0681C29.8677 19.487 29.2567 25.2253 25.4488 28.9535C23.9168 30.45 22.1015 31.4064 19.8876 31.8758C18.8515 32.0883 16.8502 32.0883 15.8141 31.8758C12.4048 31.1496 9.65957 29.0863 8.13644 26.0932C7.16234 24.1892 6.78155 22.2765 6.95866 20.2397C7.28631 16.485 9.50903 13.1554 12.8121 11.4463C13.8393 10.9149 15.0083 10.5164 16.0001 10.3482C17.0007 10.1799 18.7187 10.1799 19.6485 10.3393Z" fill="white"/>
<path d="M16.0824 13.2171C13.0361 13.8724 10.6717 16.2368 9.91013 19.3982C9.72417 20.1775 9.72417 21.9929 9.90128 22.8253C10.5743 25.8539 12.8059 28.1828 15.8256 28.9975C16.8262 29.2632 18.7213 29.2809 19.7131 29.033C23.2553 28.1297 25.6374 25.3137 25.9562 21.6741C26.0625 20.4255 25.7171 18.6544 25.1415 17.512C24.0346 15.3159 21.9093 13.6776 19.5183 13.1817C18.5973 12.9957 17.0476 13.0046 16.0824 13.2171ZM19.7662 14.6163C20.9263 14.9882 21.9093 15.5992 22.7328 16.4671C23.8752 17.6714 24.4862 19.0263 24.6279 20.7088L24.6899 21.4173L24.1674 21.6564C23.0339 22.1611 21.9713 22.2851 20.8643 22.0194C20.5455 21.9486 19.7131 21.6121 19.0047 21.2756C17.5435 20.576 16.7997 20.3458 15.4979 20.2041C14.2227 20.0624 12.3808 20.2838 11.2562 20.7088C11.1056 20.7708 11.0968 20.7266 11.1499 20.2218C11.3004 18.8315 12 17.4589 13.1512 16.3165C14.0368 15.4399 15.0729 14.8377 16.2329 14.5455C17.145 14.3152 18.9427 14.3506 19.7662 14.6163ZM16.5517 21.7538C17.0211 21.8778 17.7649 22.1611 18.2785 22.4179C19.8459 23.2061 20.82 23.4895 21.9978 23.4895C22.6443 23.4895 23.8663 23.2858 24.1585 23.1264C24.4154 22.9935 24.3534 23.2149 23.9283 24.0739C23.0428 25.8361 21.679 27.0051 19.8017 27.6161C19.1375 27.8286 18.9161 27.8552 17.8535 27.864C16.7288 27.864 16.6049 27.8463 15.8167 27.5718C14.3556 27.0759 13.2044 26.2524 12.4074 25.1366C11.6192 24.0296 10.9994 22.3471 11.3004 22.1611C11.5484 22.0106 12.8501 21.621 13.3815 21.5413C14.1785 21.4261 15.613 21.5147 16.5517 21.7538Z" fill="#8BC542"/>
</svg>
