<svg width="43" height="43" viewBox="0 0 43 43" fill="none" xmlns="http://www.w3.org/2000/svg">
<path d="M10.3461 0.983482C7.75857 1.4517 5.59822 2.60169 3.6843 4.5074C1.74573 6.44597 0.603949 8.63096 0.152165 11.2349C0.0207365 12.0235 -0.00390625 12.5738 -0.00390625 14.7342C-0.00390625 17.2395 0.00430801 17.3052 0.168593 17.4613C0.31645 17.5927 0.513592 17.6256 1.58145 17.6584L2.8218 17.6995L2.91216 18.1349C3.06823 18.8249 3.57751 19.7531 4.10323 20.3116C4.76037 21.0181 5.61465 21.5109 6.63322 21.7656C6.9125 21.8395 6.97822 21.8888 6.97822 22.0449C6.97822 22.7513 7.65179 23.622 8.38286 23.8602C9.46714 24.2216 10.5679 23.7452 11.0525 22.7102L11.2496 22.2995V17.0013C11.2496 13.6006 11.2168 11.5963 11.1675 11.3992C11.0361 10.9392 10.5925 10.4135 10.1161 10.1588C9.76285 9.96167 9.58214 9.9206 9.12214 9.9206C8.48143 9.9206 8.12 10.052 7.67643 10.4381C7.32322 10.7502 6.97822 11.4156 6.97822 11.7935C6.97822 12.0317 6.95357 12.0481 6.53465 12.1467C5.98429 12.2699 5.06429 12.7052 4.63715 13.0584L4.30858 13.3213L4.28394 12.9845C4.22644 12.196 4.71108 10.4299 5.26144 9.45239C6.41143 7.40704 8.26786 5.95311 10.5761 5.32061C11.4961 5.06597 13.7139 5.06597 14.6339 5.32061C16.1946 5.74776 17.5089 6.51168 18.5685 7.61239C19.965 9.0581 20.7864 10.8077 20.9178 12.6313L20.9671 13.3213L20.3593 12.9106C19.8089 12.5327 18.7 12.0727 18.3632 12.0727C18.2728 12.0727 18.2318 11.9988 18.2318 11.8592C18.2318 11.1856 17.6239 10.3231 16.9832 10.0602C16.441 9.84667 15.6853 9.87953 15.1514 10.1424C14.6093 10.4052 14.2725 10.7995 14.0918 11.3663C13.9686 11.7524 13.9603 12.3685 13.9768 17.1327C14.0014 22.4227 14.0014 22.4638 14.1821 22.7924C14.8475 24.0327 16.4493 24.3613 17.5089 23.4906C17.8621 23.1948 18.2318 22.4966 18.2318 22.1188C18.2318 21.8888 18.2646 21.8395 18.4618 21.8066C19.3818 21.6013 20.1785 21.1906 20.8685 20.5581C21.616 19.8599 22.1582 18.8988 22.38 17.8802L22.421 17.6584H23.6367C25.3535 17.6584 25.2467 17.8063 25.2796 15.3338C25.296 14.2824 25.2714 12.9599 25.2139 12.3931C24.7375 6.84846 20.885 2.38812 15.4389 1.09027C14.2232 0.802769 11.6357 0.745268 10.3461 0.983482ZM14.4532 2.42098C17.895 2.97955 20.9835 5.27133 22.5771 8.43382C23.5053 10.2985 23.8175 11.8756 23.8175 14.7999V16.1799H23.1685H22.5278L22.4785 14.2659C22.4292 12.1467 22.3142 11.3335 21.92 10.2163C20.696 6.71704 17.6814 4.2199 14.0425 3.68597C12.9828 3.5299 11.1428 3.62848 10.1654 3.89133C8.38286 4.36776 6.93715 5.1974 5.65572 6.47882C4.3743 7.75204 3.52823 9.2306 3.0518 11.0049C2.86287 11.7277 2.83823 11.9495 2.80537 13.9784L2.77251 16.1799H2.12359H1.47466V14.2659C1.47466 12.081 1.57323 11.3088 2.0168 9.94524C2.57537 8.23668 3.5118 6.75811 4.87537 5.43561C6.51822 3.84205 8.48964 2.82348 10.7157 2.42919C11.6111 2.27312 13.4839 2.26491 14.4532 2.42098ZM9.56571 11.621L9.77107 11.8181V16.8699C9.77107 20.3938 9.74642 21.9791 9.68071 22.1188C9.58214 22.3324 9.29464 22.5049 9.04 22.5049C8.95786 22.5049 8.79357 22.4145 8.67036 22.2995L8.45679 22.1024V16.9767C8.45679 11.9167 8.45679 11.8427 8.62928 11.6292C8.85928 11.3417 9.28643 11.3335 9.56571 11.621ZM16.5643 11.5963L16.7532 11.7688V16.9356V22.1024L16.5478 22.2995C16.2768 22.5706 15.9728 22.5624 15.6771 22.2666L15.4389 22.0284V17.0013C15.4389 11.2267 15.4143 11.4402 16.1289 11.4238C16.2768 11.4156 16.4493 11.4895 16.5643 11.5963ZM6.97822 16.9274V20.3034L6.75643 20.2459C5.71322 19.9995 4.71108 18.9891 4.39072 17.872C3.98823 16.4674 4.56322 14.8902 5.76251 14.1099C6.14858 13.8552 6.74822 13.5677 6.92072 13.5595C6.95357 13.5513 6.97822 15.0709 6.97822 16.9274ZM19.0285 13.847C20.7043 14.6438 21.4353 16.7631 20.6139 18.4388C20.31 19.0631 19.6528 19.7284 19.0203 20.0406C18.1578 20.4759 18.2318 20.7716 18.2318 16.9109V13.5431L18.4207 13.5924C18.5193 13.6252 18.7903 13.7402 19.0285 13.847Z" fill="white"/>
<path d="M21.0273 1.5597V2.29898H30.3423H39.6491L39.9284 2.48791C40.0762 2.58648 40.2898 2.80005 40.3884 2.94791L40.5773 3.22719V21.8489V40.4707L40.3884 40.7499C40.2898 40.8978 40.0762 41.1114 39.9284 41.2099L39.6491 41.3989H32.437H25.2166V42.1382V42.8774L32.6752 42.861L40.1255 42.8364L40.5362 42.6146C41.0291 42.3517 41.5548 41.8178 41.8176 41.3167L42.0148 40.9471V21.8489V2.75077L41.8176 2.38112C41.5548 1.88005 41.0291 1.34613 40.5362 1.08327L40.1255 0.861485L30.5805 0.836842L21.0273 0.820412V1.5597Z" fill="white"/>
<path d="M37.7773 4.35148V5.09131H38.5172H39.257V4.35148V3.61166H38.5172H37.7773V4.35148Z" fill="white"/>
<path d="M27.924 5.17298C26.8315 5.44405 25.8458 5.97798 25.0162 6.76655L24.6055 7.1444L25.0901 7.57976C25.353 7.80976 25.6076 8.03154 25.6651 8.0644C25.7226 8.10547 25.9115 7.99047 26.1251 7.79333C26.9712 7.01297 28.0226 6.5694 29.1972 6.5119C30.6265 6.43798 31.8094 6.89798 32.8608 7.95762C33.8137 8.91047 34.2737 10.0112 34.2737 11.3337C34.2737 12.6562 33.8137 13.7569 32.8608 14.7097C31.3576 16.2129 29.3369 16.5908 27.3901 15.7283L26.9465 15.5312L26.6097 16.1144C26.429 16.4347 26.2894 16.7469 26.314 16.8126C26.3797 16.9687 27.2094 17.3137 27.9651 17.5026C29.378 17.8394 30.8812 17.6669 32.2694 16.9933C33.0169 16.6237 33.214 16.484 33.8712 15.8269C34.7172 14.9726 35.1444 14.3072 35.4483 13.3462C35.8919 11.9415 35.8837 10.6026 35.4072 9.23083C35.0704 8.25333 34.7254 7.70297 33.9204 6.88976C32.9594 5.92048 32.0229 5.40298 30.758 5.13191C29.9694 4.96762 28.688 4.98405 27.924 5.17298Z" fill="#8BC542"/>
<path d="M28.5513 7.89192C28.0174 8.01513 27.2945 8.4587 26.8592 8.9187C25.1999 10.6683 25.7667 13.5187 27.9681 14.5537C29.2003 15.1287 30.7938 14.8905 31.796 13.9869C33.102 12.804 33.3485 10.7669 32.3545 9.31298C31.5495 8.13013 29.997 7.55513 28.5513 7.89192ZM30.2681 9.47727C30.7199 9.68263 31.1717 10.1426 31.3442 10.5616C31.4099 10.7176 31.4592 11.0626 31.4592 11.3337C31.4592 11.6048 31.4099 11.9498 31.3442 12.1058C31.0485 12.8205 30.2106 13.3873 29.4467 13.3873C28.5924 13.3873 27.7299 12.7301 27.4835 11.9005C27.3192 11.3666 27.3192 11.3008 27.4835 10.7669C27.8285 9.59227 29.1756 8.96799 30.2681 9.47727Z" fill="white"/>
<path d="M27.9582 19.7951C27.2929 19.9019 26.1347 20.2387 25.42 20.5344C23.5718 21.3065 21.6743 23.0808 20.7133 24.9372C20.3765 25.5697 19.8672 26.958 19.8672 27.2126C19.8672 27.2947 20.0479 27.3769 20.4422 27.4755C20.7625 27.5576 21.0747 27.6233 21.1404 27.6315C21.2225 27.6397 21.354 27.3851 21.5347 26.8594C22.545 23.9351 25.0011 21.8487 28.0732 21.3148C31.2193 20.7644 34.5296 22.2019 36.3696 24.9126C36.7804 25.5205 37.3307 26.7444 37.5361 27.5165C37.7004 28.1162 37.725 28.4119 37.725 29.5701C37.725 30.6954 37.6921 31.0322 37.5443 31.5579C36.6489 34.7944 34.3079 37.0369 31.0797 37.7597C30.2747 37.9404 28.5579 37.9322 27.7118 37.7515C27.3504 37.6694 26.7425 37.4804 26.3565 37.3244C25.9704 37.1683 25.6254 37.0369 25.5843 37.0204C25.5432 37.0122 25.3543 37.2915 25.1736 37.6447C24.7875 38.3758 24.7465 38.3101 25.7404 38.6961C29.9872 40.3472 34.6693 39.0329 37.3389 35.4269C40.2303 31.5251 39.8196 25.9969 36.3779 22.5798C35.0471 21.2573 33.4372 20.3701 31.6136 19.9512C30.8086 19.7623 28.7386 19.6801 27.9582 19.7951Z" fill="#8BC542"/>
<path d="M28.2049 22.6205C26.6442 22.9163 25.4613 23.557 24.3606 24.6823C23.5556 25.512 22.7588 26.933 22.6192 27.7955L22.5781 28.0502L23.2517 28.198C23.6213 28.2802 23.9581 28.3212 23.991 28.2802C24.0238 28.2473 24.1306 27.9762 24.2374 27.6805C24.5988 26.6291 25.2724 25.7255 26.1678 25.093C29.3303 22.8341 33.5195 24.2388 34.7681 27.968C34.9242 28.4527 34.957 28.7073 34.957 29.5698C34.9488 30.457 34.9159 30.687 34.727 31.262C34.2752 32.6337 33.1992 33.8741 31.9424 34.4902C30.9977 34.9502 30.3652 35.1062 29.3713 35.0898C28.1474 35.0816 27.096 34.7202 26.1267 33.9891L25.6995 33.6687L25.2395 34.178C24.9767 34.4655 24.7713 34.7284 24.7713 34.7777C24.7713 35.0816 26.6442 36.1084 27.7285 36.3959C28.6567 36.6423 30.2585 36.6423 31.1785 36.3959C33.3963 35.8127 35.2445 34.1698 36.0167 32.108C36.6492 30.4241 36.6245 28.5102 35.9509 26.8427C35.1542 24.8795 33.3388 23.2859 31.2524 22.7438C30.4145 22.5302 29.0017 22.4727 28.2049 22.6205Z" fill="white"/>
<path d="M8.07099 25.3805C7.84099 25.4708 7.79992 25.553 7.09349 27.3108L6.50206 28.7894L3.96385 28.8305C1.54886 28.8715 1.41743 28.8797 1.09708 29.0522C0.661721 29.2822 0.21815 29.7997 0.0949365 30.2187C0.0210081 30.4405 -0.0036347 32.0751 -0.0036347 35.944C-0.0036347 42.0308 -0.0364918 41.694 0.620649 42.3183C1.25315 42.9179 0.398864 42.8768 11.9235 42.8768C21.797 42.8768 22.3145 42.8686 22.6267 42.7208C23.062 42.5236 23.4727 42.1047 23.6863 41.6447C23.8588 41.2833 23.8588 41.1765 23.8588 35.8537C23.8588 29.849 23.8834 30.1858 23.3167 29.5287C23.1606 29.3562 22.8567 29.1262 22.6267 29.0276C22.2242 28.8387 22.1584 28.8305 19.7845 28.8305H17.3449L16.7124 27.2451C16.3674 26.3826 16.0142 25.594 15.9238 25.5037C15.7678 25.3476 15.6445 25.3394 12.0056 25.323C9.94384 25.3148 8.16956 25.3394 8.07099 25.3805ZM15.431 28.1158C16.1456 29.923 16.236 30.1037 16.4742 30.2187C16.6138 30.2762 17.5092 30.309 19.2999 30.309H21.9202L22.1502 30.5062L22.3802 30.7033V35.8372V40.9711L22.1831 41.1847L21.9859 41.3983H11.9153H1.85279L1.66386 41.2176L1.47493 41.0451V35.8783V30.7115L1.68029 30.5144L1.87743 30.309H4.51421C6.66635 30.309 7.19206 30.2844 7.38099 30.1858C7.57813 30.0872 7.70956 29.8408 8.21063 28.5676C8.5392 27.738 8.84313 26.9987 8.8842 26.9165C8.94991 26.7851 9.17991 26.7769 11.9317 26.7769H14.9053L15.431 28.1158Z" fill="white"/>
<path d="M10.7344 30.3493C8.51654 30.9079 6.98868 32.8711 6.98047 35.1629C6.98047 37.044 8.03189 38.7525 9.69118 39.5658C10.5126 39.96 11.0219 40.0833 11.909 40.0833C12.788 40.0833 13.3055 39.9683 14.1187 39.574C15.4001 38.9661 16.4679 37.6108 16.7472 36.239C17.1662 34.2265 16.3365 32.1811 14.6608 31.0558C14.3158 30.8258 13.7901 30.5629 13.4862 30.4643C12.7715 30.2344 11.408 30.1769 10.7344 30.3493ZM13.1412 31.9429C14.9565 32.6329 15.8683 34.8261 15.0551 36.5593C14.6937 37.3315 14.1515 37.8818 13.404 38.2515C12.8044 38.5554 12.7469 38.5636 11.9172 38.5636C11.1369 38.5636 10.9972 38.539 10.5619 38.3336C9.58439 37.8818 8.92725 37.1343 8.62332 36.1486C8.04832 34.3004 9.14082 32.3701 11.0876 31.8115C11.5887 31.6636 12.5826 31.7293 13.1412 31.9429Z" fill="#8BC542"/>
<path d="M3.45312 32.362V33.1018H4.19295H4.93277V32.362V31.6222H4.19295H3.45312V32.362Z" fill="#8BC542"/>
<path d="M18.1484 32.3625V33.1018H19.5859H21.0234V32.3625V31.6232H19.5859H18.1484V32.3625Z" fill="#8BC542"/>
<path d="M19.5469 39.3434V40.0833H20.2867H21.0265V39.3434V38.6036H20.2867H19.5469V39.3434Z" fill="#8BC542"/>
<path d="M37.7773 39.3434V40.0833H38.5172H39.257V39.3434V38.6036H38.5172H37.7773V39.3434Z" fill="white"/>
</svg>
