<svg width="43" height="43" viewBox="0 0 43 43" fill="none" xmlns="http://www.w3.org/2000/svg">
<path d="M3.54321 0.999298C1.99193 1.53116 0.830696 2.70127 0.360882 4.24368C0.192458 4.77554 0.183594 5.08579 0.183594 9.88144C0.183594 14.5973 0.192458 14.9608 0.334289 15.0937C0.476119 15.209 0.91934 15.2355 3.55207 15.2621C6.49506 15.2887 6.61916 15.2976 6.97374 15.4838C7.16875 15.5901 7.46128 15.8117 7.60311 15.989C8.00201 16.4322 8.10838 16.84 8.04633 17.6733C8.01974 18.0722 7.47014 22.3359 6.84077 27.1582C5.79477 35.0652 5.6618 35.9783 5.45792 36.3949C5.04129 37.237 4.22577 37.8043 3.21522 37.9462C2.2756 38.0791 2.31105 37.9816 2.31105 40.4194C2.31105 42.3429 2.32878 42.5291 2.47061 42.662C2.62131 42.8039 4.12826 42.8127 22.2737 42.8127C41.1815 42.8127 41.9173 42.8039 42.0502 42.6532C42.1832 42.5114 42.2009 42.2188 42.2009 40.4016C42.2009 38.4958 42.1832 38.3096 42.0414 38.1767C41.8907 38.0437 41.4563 38.026 37.6092 38.026H33.3365V36.7583L33.3454 35.4996L33.8418 35.1982C35.7476 34.037 37.4496 31.8918 38.1587 29.7377C38.5842 28.4524 38.664 27.8762 38.7172 25.9881C38.7704 24.1975 38.7615 24.1886 38.5665 23.967L38.3626 23.7543H28.2395C19.2332 23.7543 18.1074 23.772 17.9302 23.8961C17.744 24.029 17.7351 24.0734 17.7351 25.7576C17.7351 27.1493 17.7706 27.6723 17.9124 28.3726C18.4797 31.1649 20.0487 33.5051 22.4067 35.0741L23.1424 35.5617V36.7938V38.026H21.2189C19.0382 38.026 18.2581 37.9373 17.5933 37.6359C16.7157 37.2282 15.9357 36.324 15.6609 35.3755C15.5368 34.95 15.519 33.7799 15.519 25.0662V15.2444H18.0011H20.4831V16.6539C20.4831 17.9037 20.5008 18.081 20.6515 18.2672L20.82 18.4799L24.1973 18.5065L27.5746 18.5331V19.9337C27.5746 21.157 27.5924 21.352 27.7342 21.4761C28.0533 21.7598 28.6384 21.6711 28.7979 21.3165C28.8688 21.1747 28.9043 20.5985 28.9043 19.8096V18.5242H32.0866C34.0723 18.5242 35.3576 18.4888 35.526 18.4356C35.9338 18.2938 35.9958 18.0367 35.9958 16.5741V15.2444H37.4851C38.8236 15.2444 39.0009 15.2267 39.125 15.0849C39.2579 14.9342 39.2757 14.4466 39.2757 9.9169C39.2757 4.40323 39.2757 4.38551 38.7172 3.33064C38.3626 2.63922 37.4319 1.70845 36.7404 1.35387C35.6147 0.75996 36.7493 0.795418 19.641 0.795418L4.12826 0.804283L3.54321 0.999298ZM34.7725 2.11621C35.987 2.27578 37.0684 3.04698 37.618 4.15503L37.9017 4.74008L37.9283 9.36731L37.9549 14.0034H19.6853H1.42461V9.94349C1.43348 7.71852 1.46893 5.61766 1.50439 5.28081C1.71714 3.68521 3.0468 2.3201 4.58921 2.12508C5.31609 2.03643 34.0545 2.02757 34.7725 2.11621ZM14.1894 25.1548C14.1894 36.0669 14.1628 35.5262 14.7478 36.6963C15.1024 37.4232 15.9977 38.3274 16.7246 38.7085C17.8326 39.2936 17.1412 39.267 29.6312 39.267H40.9599V40.4194V41.5717H22.256H3.55207V40.4282V39.2847L3.95983 39.1872C5.46678 38.806 6.74326 37.4675 7.00919 35.9871C7.05352 35.7212 7.61197 31.5283 8.25021 26.6795C9.55328 16.7868 9.55328 16.7425 9.08347 15.794L8.80867 15.2444H11.5035H14.1894V25.1548ZM34.6662 16.2638V17.1946H28.2395H21.8128V16.2638V15.3331H28.2395H34.6662V16.2638ZM37.4141 26.0324C37.4141 29.392 35.9338 32.2375 33.2833 34.0015C29.5691 36.4747 24.5873 35.8985 21.5468 32.6453C20.4033 31.4308 19.5612 29.8264 19.2421 28.2662C19.1534 27.8496 19.0559 26.9632 19.0205 26.2983L18.9584 25.0839H28.1863H37.4141V26.0324ZM25.6245 36.5013C26.4134 36.7229 26.5818 36.7406 28.2395 36.7318C30.0744 36.7318 30.1808 36.714 31.8118 36.2088C32.0068 36.1467 32.0068 36.1467 32.0068 37.0863V38.026H28.2395H24.4721V37.0863C24.4721 36.2265 24.4898 36.1467 24.6317 36.2088C24.7114 36.2353 25.1635 36.3772 25.6245 36.5013Z" fill="white"/>
<path d="M7.1762 6.06075C5.52742 6.64581 5.29695 8.92396 6.78617 9.80154C8.19561 10.6171 9.93304 9.63312 9.93304 8.01093C9.93304 6.58376 8.51473 5.58208 7.1762 6.06075ZM8.32858 7.49679C8.53246 7.66521 8.60338 7.79818 8.60338 8.01979C8.60338 8.3655 8.19561 8.77327 7.8499 8.77327C7.49532 8.77327 7.14961 8.40096 7.14961 8.01979C7.14961 7.76272 7.21166 7.63862 7.39781 7.47906C7.70807 7.20426 7.99173 7.21313 8.32858 7.49679Z" fill="#8BC542"/>
<path d="M14.1771 6.06039C13.6896 6.22881 13.3262 6.5302 13.078 6.95569C12.227 8.40059 13.3439 10.2267 14.9749 10.076C16.1362 9.97846 16.9251 9.13634 16.934 8.01942C16.934 7.51415 16.6414 6.805 16.3046 6.49474C15.7639 5.99834 14.8597 5.81218 14.1771 6.06039ZM15.3472 7.52302C15.4979 7.68257 15.6043 7.87759 15.6043 8.01942C15.6043 8.32968 15.1611 8.7729 14.8508 8.7729C14.5406 8.7729 14.0974 8.32968 14.0974 8.01942C14.0974 7.70917 14.5406 7.26595 14.8508 7.26595C14.9927 7.26595 15.1877 7.37232 15.3472 7.52302Z" fill="#8BC542"/>
<path d="M20.6772 7.55879C20.4201 7.83358 20.4201 8.26794 20.6772 8.50728C20.8722 8.68457 20.9431 8.68457 28.2119 8.68457H35.5605L35.7733 8.46296C35.8974 8.34772 35.9949 8.14384 35.9949 8.01974C35.9949 7.89564 35.8974 7.69175 35.7733 7.57652L35.5605 7.35491H28.2119H20.8633L20.6772 7.55879Z" fill="#8BC542"/>
<path d="M35.4275 26.9094C35.3477 26.9803 35.259 27.1487 35.2325 27.2817C34.8247 29.1343 34.1421 30.4285 33.0429 31.4302C32.4845 31.9444 32.3249 32.1926 32.4136 32.4674C32.5997 33.079 33.105 33.1411 33.7432 32.6269C34.869 31.7405 35.9505 29.9765 36.3494 28.4163C36.571 27.521 36.5798 27.1753 36.3494 26.9448C36.1366 26.7321 35.6225 26.7055 35.4275 26.9094Z" fill="#8BC542"/>
</svg>
