<svg width="44" height="38" viewBox="0 0 44 38" fill="none" xmlns="http://www.w3.org/2000/svg">
<path d="M40.6895 0.51545C37.537 0.896067 34.6493 1.87243 32.5394 3.28734C31.5713 3.93273 30.3798 5.05803 29.6765 5.99303C29.0476 6.82873 28.2285 8.43394 27.9885 9.31102C27.6079 10.6845 27.7072 12.4635 28.2202 13.5392C28.6753 14.4824 29.6517 15.2933 30.6694 15.5664C31.1741 15.707 32.3242 15.7153 32.9945 15.5912C35.3113 15.1609 37.4378 13.4151 38.4224 11.1231C38.8113 10.2212 39.0678 9.26964 39.4567 7.28382C39.9035 4.96702 40.5572 3.63486 42.0383 2.02137C42.3196 1.7235 42.5678 1.38425 42.5926 1.26841C42.6588 1.02018 42.4602 0.589918 42.2617 0.507175C42.121 0.45753 41.1364 0.45753 40.6895 0.51545ZM39.8952 2.37716C39.1919 3.35353 38.5465 4.74361 38.3066 5.79444C38.2321 6.10887 38.0583 6.95284 37.9259 7.65616C37.7935 8.35947 37.5784 9.2531 37.4626 9.64199C36.8668 11.5203 35.7167 12.9352 34.1529 13.6964C33.342 14.0936 32.6056 14.2756 31.7864 14.2756C31.2486 14.2756 31.0831 14.2425 30.6528 14.0274C29.6268 13.5061 29.1469 12.5794 29.1469 11.0983C29.1552 9.30274 30.4874 6.81218 32.2663 5.29799C34.0867 3.74242 36.2049 2.82398 39.6966 2.08756C40.1434 1.98827 40.16 2.0131 39.8952 2.37716Z" fill="#8BC542"/>
<path d="M36.6954 3.37809C36.3396 3.57667 34.6517 5.21498 33.8243 6.16652C32.4094 7.78001 31.4082 9.18664 30.4732 10.858C29.8278 12.0247 29.7781 12.2729 30.1174 12.6205C30.6304 13.1335 30.9945 12.9349 31.5902 11.8013C32.7072 9.69964 34.0228 7.97032 36.1576 5.84383C37.8373 4.16415 37.9366 3.99866 37.5725 3.57667C37.3408 3.3119 36.9519 3.22915 36.6954 3.37809Z" fill="#8BC542"/>
<path d="M20.3344 5.14116C19.4408 5.23217 18.1169 5.44731 17.5625 5.58797C16.8757 5.76173 16.6523 5.95204 16.6523 6.3492C16.6523 6.7381 16.7765 6.87048 17.4301 7.23455C18.2162 7.66481 19.1429 8.40123 19.6807 9.03007C19.9207 9.29485 20.4171 10.0726 20.7895 10.7594C21.7079 12.4308 22.1216 13.0431 22.8581 13.7878C23.5862 14.5325 24.3557 14.9958 25.4314 15.3599C26.085 15.5833 26.3664 15.633 27.1855 15.666C28.1205 15.6991 28.1701 15.6909 28.3687 15.5171C28.617 15.2772 28.6418 14.7972 28.4101 14.5159C28.2777 14.3504 28.1619 14.3256 27.3179 14.2677C24.9349 14.1188 23.702 13.1341 22.0306 10.0561C21.1949 8.50879 20.6902 7.8634 19.6807 7.01942L19.2753 6.68017L19.929 6.60571C20.2848 6.57261 21.1453 6.54779 21.8238 6.54779C23.7269 6.56433 25.0838 6.86221 26.4987 7.5738C26.8628 7.75583 27.2517 7.90477 27.3675 7.90477C27.6985 7.90477 27.9881 7.56552 27.9881 7.16836C27.9881 6.88703 27.9467 6.80429 27.7151 6.63053C27.0531 6.1258 25.4645 5.53832 24.0992 5.29837C23.3462 5.16598 21.0294 5.07496 20.3344 5.14116Z" fill="#8BC542"/>
<path d="M22.6114 7.65685C22.3963 7.87198 22.3384 8.1533 22.4377 8.42635C22.5039 8.59184 22.719 8.74078 23.3313 9.0552C24.2084 9.49374 25.3916 10.164 25.888 10.5032C26.4259 10.8673 26.9885 10.7763 27.154 10.2963C27.3609 9.69232 26.7486 9.18759 24.3573 7.98782C23.2734 7.44171 22.8927 7.37552 22.6114 7.65685Z" fill="#8BC542"/>
<path d="M19.622 11.7939C17.4624 12.4889 13.3087 15.2525 8.24487 19.3648C7.73186 19.7703 6.92098 20.3495 6.4328 20.6474C4.54626 21.7892 2.7011 23.353 1.86539 24.528C1.11243 25.5623 0.847656 26.7455 0.847656 29.0375C0.855931 30.7834 0.938673 31.6025 1.17863 32.0659C1.64199 32.9678 2.36185 33.4063 3.5037 33.4559L4.22357 33.489L4.35595 34.0269C4.81104 35.8307 6.27559 37.2787 8.12903 37.742C8.91509 37.9406 10.2059 37.8661 11.025 37.5848C12.622 37.0222 13.9376 35.5411 14.2685 33.9524L14.3678 33.4725H22.1539H29.9401L30.0393 33.9524C30.4034 35.7314 31.9672 37.3035 33.7959 37.7338C34.4661 37.891 35.5997 37.891 36.2202 37.7338C38.0323 37.2704 39.4968 35.8141 39.9519 34.0269L40.0843 33.4973L40.6387 33.4559C41.3255 33.4063 41.855 33.1746 42.3018 32.7278C43.0465 31.9831 43.1706 31.3046 43.1706 28.0115C43.1706 26.067 43.1375 25.3802 43.0217 24.619C42.5914 21.905 41.7226 19.1083 40.5642 16.7171C40.0099 15.5752 39.0583 13.9535 38.8515 13.7962C38.6198 13.6225 38.1812 13.6721 37.9578 13.9038C37.6351 14.2182 37.6848 14.5161 38.2061 15.3766C39.6872 17.8176 40.7959 20.7053 41.3917 23.6261C41.7144 25.2561 41.8137 26.2159 41.8137 27.9784C41.8137 29.8815 41.6813 31.1557 41.4413 31.5115C41.2262 31.8342 40.7876 32.0659 40.3905 32.0659H40.0926L39.9602 31.5198C39.7285 30.593 39.3562 29.9394 38.6198 29.203C37.4862 28.0611 36.3857 27.6309 34.7722 27.7053C33.3491 27.7632 32.3148 28.2266 31.3219 29.2278C30.7344 29.8318 30.2048 30.7999 30.0393 31.5777L29.9401 32.0659H22.1539H14.3678L14.2685 31.5777C14.1362 30.924 13.6066 29.898 13.1432 29.3685C12.6385 28.7975 11.778 28.2183 11.025 27.9535C10.2886 27.6888 9.06402 27.606 8.26969 27.7632C6.44107 28.1108 4.81931 29.6663 4.35595 31.5198L4.22357 32.0659H3.72711C2.91623 32.0659 2.47769 31.7266 2.33703 30.9819C2.01433 29.2857 2.27911 26.5883 2.87486 25.5706C3.46233 24.5611 5.36542 22.9476 7.46709 21.6734C7.89735 21.4169 8.98128 20.6143 9.86663 19.9027C14.2272 16.4109 17.4293 14.2596 19.7875 13.2419C20.6563 12.8695 20.8466 12.6627 20.7473 12.2159C20.6398 11.7277 20.2674 11.587 19.622 11.7939ZM10.8761 29.4346C12.4979 30.2373 13.3253 31.9914 12.8785 33.6794C12.5558 34.9536 11.5546 35.9548 10.2472 36.3271C8.22832 36.9146 6.00254 35.4583 5.65502 33.3318C5.43161 31.95 6.11838 30.4276 7.3016 29.6663C7.98009 29.2278 8.55102 29.0871 9.46119 29.1119C10.1893 29.1285 10.3134 29.1616 10.8761 29.4346ZM36.0878 29.2443C37.8172 29.7822 38.9342 31.5446 38.6529 33.307C38.2392 35.9051 35.368 37.2621 33.1008 35.93C32.6623 35.6735 32.0665 35.0529 31.7687 34.5482C30.3951 32.1983 32.1989 29.1037 34.9543 29.0871C35.3514 29.0871 35.7734 29.145 36.0878 29.2443Z" fill="white"/>
<path d="M31.9649 16.4521C31.6753 16.601 31.5512 16.8906 31.6091 17.3375C31.6918 18.0739 31.2781 18.5538 30.4259 18.6696C30.1115 18.711 25.9081 18.9923 21.0842 19.2819C10.5097 19.9273 11.2047 19.8694 10.973 20.0928C10.6421 20.3907 10.7496 21.0692 11.1551 21.2264C11.2709 21.2677 12.0735 21.2512 13.2402 21.1767C14.2745 21.1105 18.6847 20.8375 23.0287 20.5644C27.3727 20.2914 31.063 20.0349 31.2202 19.9852C31.6753 19.8611 32.2628 19.4474 32.5441 19.0668C33.1729 18.198 33.2143 16.7748 32.6186 16.4687C32.3372 16.3197 32.2297 16.3197 31.9649 16.4521Z" fill="white"/>
<path d="M22.9574 21.8216C22.8664 21.9292 22.3368 22.6904 21.7824 23.5261C20.9385 24.8086 20.7812 25.09 20.7812 25.363C20.7812 25.6112 20.8309 25.7188 20.9964 25.8512C21.1867 26.0001 21.3356 26.025 22.1548 26.025C22.6761 26.025 23.098 26.0415 23.098 26.0663C23.098 26.0912 22.8002 26.5545 22.4361 27.1006C21.9231 27.8701 21.7742 28.1514 21.7742 28.3831C21.7742 28.8713 22.2458 29.1857 22.7092 29.012C22.9988 28.8961 25.1666 25.6774 25.1666 25.3465C25.1666 24.759 24.8853 24.6183 23.7186 24.6183C23.2387 24.6183 22.8498 24.6018 22.8498 24.577C22.8498 24.5604 23.1477 24.0888 23.5118 23.5344C24.2399 22.4256 24.3144 22.1857 23.9668 21.8464C23.7021 21.5734 23.1973 21.5651 22.9574 21.8216Z" fill="#8BC542"/>
</svg>
