<svg width="45" height="36" viewBox="0 0 45 36" fill="none" xmlns="http://www.w3.org/2000/svg">
<path d="M11.2291 0.352367C10.5176 0.480083 9.53236 0.79937 8.83905 1.14602C6.60405 2.26808 4.98025 4.32976 4.25958 6.96615L4.00415 7.87839L3.97678 21.0786L3.94941 34.2879H2.1979C0.209204 34.2879 0.0358777 34.3335 0.0358777 34.8717C0.0358777 35.4921 -0.137449 35.4738 4.88903 35.4738C9.14921 35.4738 9.41376 35.4647 9.5506 35.3096C9.77866 35.0633 9.7513 34.5981 9.50499 34.4339C9.33166 34.3153 8.95764 34.2879 7.22437 34.2879H5.14445V21.6715C5.14445 13.3245 5.18094 8.79976 5.2448 8.2889C5.74654 4.23853 9.1036 1.26461 12.9442 1.47443C15.5623 1.62039 17.9068 3.21682 19.1018 5.689C19.5671 6.63774 19.786 7.34017 19.8863 8.2068L19.9411 8.71766L19.5488 8.78152C17.8976 9.04607 16.3103 10.5422 15.8633 12.2754C15.6718 13.0052 15.6809 14.6108 15.8725 14.8023C15.9911 14.9209 16.2556 14.9483 17.3321 14.9483C18.5089 14.9483 18.6548 14.9665 18.7095 15.1034C18.8738 15.5595 19.3116 16.043 19.7586 16.2619C20.7895 16.7819 21.9845 16.3805 22.4771 15.3588L22.6778 14.9483H23.8911C25.4328 14.9483 25.3963 14.9848 25.3963 13.7259C25.3963 12.1568 24.9858 11.0804 24.0097 10.1043C23.3894 9.49307 22.2582 8.87274 21.574 8.78152L21.1361 8.72678L21.0723 8.10645C20.9993 7.25807 20.6253 6.01741 20.1874 5.11429C19.0015 2.68772 16.8121 0.963573 14.2213 0.434471C13.3638 0.252022 12.0319 0.224655 11.2291 0.352367ZM21.428 9.97656C22.9424 10.3688 24.0644 11.6733 24.1921 13.1785L24.2378 13.7624H20.5614H16.8942L16.9307 13.1877C16.9945 12.1203 17.7061 10.98 18.6548 10.4144C19.5579 9.87621 20.4702 9.73025 21.428 9.97656ZM21.1179 15.1307C20.9993 15.2311 20.7895 15.3132 20.6526 15.3132C20.5158 15.3132 20.306 15.2311 20.1874 15.1307L19.9684 14.9574H20.6526H21.3368L21.1179 15.1307Z" fill="#8BC542"/>
<path d="M18.6715 11.1076C18.1971 11.4725 17.6406 12.2297 17.6406 12.476C17.6406 12.7588 17.9143 13.0325 18.1971 13.0325C18.5894 13.0325 19.9212 11.7006 19.9212 11.3083C19.9212 10.6698 19.3374 10.5785 18.6715 11.1076Z" fill="white"/>
<path d="M15.2848 20.2029C15.0203 20.3306 14.6827 20.586 14.5368 20.7684C14.0624 21.3432 13.9894 21.781 13.9894 23.9522V25.8953H13.7887C13.4238 25.8953 12.6758 26.3058 12.3291 26.698C11.6358 27.4643 11.6632 27.2454 11.6358 31.4052C11.6085 34.8079 11.6267 35.1454 11.7635 35.3005C11.9095 35.4647 12.092 35.4738 14.3087 35.4738C17.0637 35.4738 16.9998 35.4921 16.9998 34.6711V34.1967H28.2661H39.5323V34.6346C39.5323 34.8809 39.5962 35.1546 39.6783 35.2731C39.8151 35.4738 39.8425 35.4738 42.2143 35.4738C44.4219 35.4738 44.6226 35.4647 44.7595 35.3096C44.8963 35.1546 44.9146 34.7623 44.9146 31.4965C44.9146 28.039 44.9054 27.8383 44.723 27.4461C44.3763 26.6616 43.5918 26.0503 42.789 25.9135L42.4059 25.8405L42.3603 23.7059C42.3147 21.7354 42.2964 21.5347 42.114 21.1972C41.8585 20.7228 41.4936 20.3853 40.9919 20.1572C40.5905 19.9748 40.4172 19.9657 35.0623 19.9657C31.4863 19.9657 29.4246 20.0022 29.1966 20.066C29.005 20.1116 28.7131 20.285 28.5397 20.4309L28.2296 20.7046L27.8829 20.44C27.6914 20.2941 27.3994 20.1207 27.2261 20.066C27.0072 19.993 25.2192 19.9657 21.333 19.9657H15.7592L15.2848 20.2029ZM27.0345 21.2975C27.5819 21.626 27.5819 21.626 27.5819 25.357V28.7506L24.1427 28.6959C22.2544 28.6594 19.8734 28.632 18.8517 28.632H16.9998V28.331C16.9998 27.5282 16.2974 26.4609 15.5494 26.1233L15.1753 25.9591V24.0525C15.1753 21.9179 15.2301 21.6442 15.7409 21.334C16.0329 21.1607 16.1879 21.1516 21.406 21.1516C26.2135 21.1516 26.8065 21.1698 27.0345 21.2975ZM40.7912 21.4617L41.1287 21.7719L41.1561 23.9066L41.1835 26.0412L40.9645 26.1416C40.2621 26.4609 39.6418 27.3822 39.5597 28.2306L39.5049 28.7232H34.1592H28.8134L28.8408 25.3753C28.8682 21.7263 28.8773 21.626 29.3881 21.3067C29.6071 21.1698 30.1453 21.1607 35.0441 21.1516H40.4445L40.7912 21.4617ZM14.9929 27.218C15.3031 27.3731 15.595 27.7106 15.7136 28.0208C15.7774 28.185 15.8139 29.38 15.8139 31.2866V34.2879H14.3087H12.8035V31.2319C12.8035 27.9387 12.8035 27.9113 13.287 27.4643C13.7614 27.0173 14.4182 26.9261 14.9929 27.218ZM42.9441 27.218C43.3272 27.4005 43.61 27.7836 43.7286 28.2853C43.7742 28.5043 43.8199 29.9365 43.8199 31.4782V34.2879H42.269H40.7182V31.2684C40.7182 28.0117 40.7365 27.9022 41.22 27.4461C41.6852 27.0082 42.3147 26.9261 42.9441 27.218ZM39.5323 31.4144V33.0108H28.2661H16.9998V31.4144V29.8179H28.2661H39.5323V31.4144Z" fill="white"/>
</svg>
