<svg width="43" height="43" viewBox="0 0 43 43" fill="none" xmlns="http://www.w3.org/2000/svg">
<path d="M18.2595 0.512184C13.5902 1.17797 9.38523 3.25417 6.11763 6.52178C3.06903 9.57038 1.01911 13.5213 0.256957 17.8139C0.0116677 19.1717 -0.0846961 22.2992 0.0729901 23.692C0.616131 28.4927 2.73613 32.8992 6.11763 36.2807C9.5254 39.6884 13.9231 41.7997 18.7325 42.3516C20.1254 42.5093 23.2529 42.4129 24.6107 42.1676C33.3973 40.6083 40.2216 33.784 41.781 24.9973C42.0263 23.6132 42.1226 20.5734 41.9562 19.1104C41.7897 17.5598 41.4744 16.1669 41.2466 15.9216C40.975 15.6325 40.4844 15.6325 40.2041 15.9304C39.9676 16.1757 39.9851 16.4823 40.2917 17.9891C40.5633 19.3382 40.6334 22.2466 40.4231 23.8585C39.5296 30.9368 34.7552 37.034 28.0448 39.6621C26.9848 40.0739 25.6006 40.4593 24.3041 40.7046C22.8674 40.9674 19.2757 40.985 17.909 40.7309C13.4851 39.925 9.77945 37.9539 6.83597 34.844C3.33184 31.1383 1.4834 26.5041 1.4834 21.4056C1.4834 18.173 2.12291 15.4486 3.55961 12.619C6.72209 6.37285 12.9595 2.26425 19.8538 1.8788C24.1026 1.64227 28.1849 2.71979 31.654 4.99748C32.5651 5.58442 33.7565 6.50426 33.7039 6.56558C33.6777 6.5831 32.9243 6.7145 32.0044 6.86343C29.5691 7.24889 29.5165 7.26641 29.5165 7.94971C29.5165 8.37897 29.7705 8.6155 30.2086 8.6155C30.6641 8.6155 35.4473 7.85335 35.7539 7.73071C36.2444 7.52922 36.2444 7.39781 35.7276 4.20905C35.2896 1.46706 35.2458 1.28309 35.0268 1.05532C34.8953 0.92392 34.7026 0.818794 34.5975 0.818794C34.2821 0.818794 33.9054 1.07285 33.8353 1.3269C33.7915 1.51962 34.1244 3.99004 34.3172 4.84855C34.361 5.05004 34.3434 5.05004 33.9317 4.73467C31.8292 3.13153 29.2712 1.82623 26.9059 1.16045C24.8648 0.591026 23.8135 0.450863 21.3694 0.415821C19.775 0.3983 18.8814 0.42458 18.2595 0.512184Z" fill="#8BC542"/>
<path d="M19.8807 8.90442C15.2552 11.0595 9.46464 13.8453 9.30696 13.9854L9.10547 14.1606V20.7922V27.4238L9.2982 27.599C9.56101 27.8268 20.7918 33.1443 21.0195 33.1443C21.2561 33.1443 32.4781 27.8268 32.7409 27.599L32.9336 27.4238V20.7922V14.1606L32.7409 13.9854C32.5043 13.7752 21.4751 8.54525 21.1247 8.47517C20.9582 8.44888 20.599 8.57153 19.8807 8.90442ZM22.7541 10.8492C23.8754 11.3748 24.3835 11.6552 24.3047 11.7077C23.928 11.918 15.0888 16.0879 15.0187 16.0879C14.9749 16.0879 14.1865 15.7375 13.2754 15.3082C11.9701 14.695 11.6547 14.511 11.7686 14.441C12.0227 14.2833 20.9757 10.0345 21.0283 10.0433C21.0633 10.052 21.8342 10.4112 22.7541 10.8492ZM28.2118 13.4423C29.3419 13.9767 30.288 14.441 30.323 14.476C30.3668 14.511 28.2819 15.536 25.7063 16.7537L21.0195 18.9788L18.9171 17.9801C17.7694 17.437 16.8409 16.9639 16.8671 16.9377C16.8934 16.9114 18.9959 15.9039 21.5276 14.695C24.0681 13.4773 26.1531 12.4874 26.1531 12.4786C26.1619 12.4699 27.0905 12.9079 28.2118 13.4423ZM15.6932 18.1291L20.3187 20.3104V25.7593V31.2083L19.8632 30.998C19.6091 30.8754 17.419 29.8416 15.0012 28.7028L10.5947 26.6178V21.1601V15.7024L10.84 15.8251C10.9714 15.8864 13.1527 16.9289 15.6932 18.1291ZM31.4443 21.1601V26.6178L27.0116 28.7203C24.5675 29.8767 22.3861 30.9104 22.1496 31.0155L21.7204 31.2083V25.7593V20.3104L26.5648 18.0152C29.2192 16.7537 31.4093 15.72 31.4268 15.7112C31.4356 15.7112 31.4443 18.1641 31.4443 21.1601Z" fill="#EFF1F1"/>
<path d="M28.4236 23.6487C27.4162 24.113 26.5139 24.551 26.435 24.6211C26.3299 24.7174 26.2773 24.8926 26.2773 25.1379C26.2773 25.4358 26.3211 25.5496 26.5051 25.6898C26.6365 25.7949 26.838 25.8738 26.9607 25.8738C27.2585 25.8738 30.8415 24.2444 31.0342 24.0166C31.2707 23.7363 31.2357 23.2106 30.9554 22.9916C30.824 22.8865 30.6225 22.8077 30.4911 22.8077C30.3684 22.8077 29.4398 23.1844 28.4236 23.6487Z" fill="#8BC542"/>
<path d="M28.3623 25.6811C27.3724 26.1541 26.4964 26.5834 26.4175 26.6535C26.3299 26.7235 26.2773 26.9163 26.2773 27.144C26.2773 27.4507 26.3211 27.5645 26.5051 27.7047C26.6365 27.8098 26.838 27.8887 26.9607 27.8887C27.2585 27.8887 30.8415 26.2592 31.0342 26.0315C31.1131 25.9351 31.1831 25.7073 31.1831 25.5234C31.1831 25.1116 30.8678 24.8138 30.4473 24.8313C30.2983 24.8313 29.361 25.2168 28.3623 25.6811Z" fill="#8BC542"/>
</svg>
