<svg width="17" height="17" viewBox="0 0 17 17" fill="none" xmlns="http://www.w3.org/2000/svg">
<path d="M2.16563 11.3232L2.16516 11.3228C1.45935 10.671 1.0413 9.76549 1.0029 8.80545C0.964499 7.84544 1.30891 6.90949 1.96042 6.20338L1.96161 6.20208L5.67461 2.16357C6.33059 1.45798 7.23914 1.04066 8.20184 1.00282C9.1648 0.964967 10.1035 1.30985 10.8129 1.96205C10.8133 1.96241 10.8137 1.96277 10.8141 1.96313L14.8368 5.69075L14.8368 5.69076C15.5421 6.34421 15.9593 7.25067 15.9972 8.21136C16.035 9.17199 15.6904 10.1084 15.0389 10.8153C15.0389 10.8153 15.0388 10.8154 15.0388 10.8154L11.3266 14.8341C11.3263 14.8344 11.326 14.8347 11.3258 14.835C10.6696 15.5409 9.76084 15.9587 8.79778 15.9971C7.83494 16.0355 6.89602 15.6916 6.18577 15.0405C6.18531 15.0401 6.18485 15.0396 6.18439 15.0392L2.16563 11.3232Z" stroke="#FFCC3D" stroke-width="2"/>
</svg>
